<svg height="83" viewBox="0 0 280 83" width="280" xmlns="http://www.w3.org/2000/svg">
    <g fill="none">
        <path d="m270 83h-260.2c-5.4 0-9.8-4.5-9.8-9.9v-63.3c0-5.4 4.4-9.8 9.8-9.8h260.2c5.4 0 10 4.4 10 9.8v63.3c0 5.4-4.6 9.9-10 9.9z"
              fill="#a6a6a6"></path>
        <path d="m278 73.1c0 4.4-3.6 7.9-8 7.9h-260.2c-4.4 0-8-3.6-8-7.9v-63.3c0-4.4 3.6-8 8-8h260.2c4.4 0 8 3.6 8 8z"
              fill="#000"></path>
        <path d="m62.5 41c-.1-6.7 5.5-9.9 5.7-10.1-3.1-4.6-8-5.2-9.7-5.2-4.1-.4-8 2.4-10.1 2.4s-5.3-2.4-8.8-2.3c-4.4.1-8.6 2.6-10.9 6.6-4.7 8.1-1.2 20.1 3.3 26.7 2.3 3.2 4.9 6.8 8.3 6.7s4.6-2.1 8.7-2.1c4 0 5.2 2.1 8.7 2.1 3.6-.1 5.9-3.2 8.1-6.5 2.6-3.7 3.6-7.3 3.7-7.5 0-.1-6.9-2.8-7-10.8zm-6.6-19.6c1.8-2.3 3.1-5.4 2.7-8.5-2.6.1-5.9 1.8-7.8 4-1.7 2-3.2 5.2-2.8 8.2 2.9.2 6-1.5 7.9-3.7zm55.4 43.9h-4.7l-2.6-8.1h-9l-2.5 8.1h-4.5l8.9-27.6h5.5zm-8.1-11.5-2.3-7.2c-.2-.7-.7-2.5-1.4-5.2h-.1c-.3 1.2-.7 2.9-1.3 5.2l-2.3 7.2zm30.9 1.3c0 3.4-.9 6.1-2.7 8-1.6 1.7-3.7 2.6-6.1 2.6-2.6 0-4.5-.9-5.7-2.8h-.1v10.5h-4.4v-21.4c0-2.1-.1-4.3-.2-6.6h3.9l.2 3.2h.1c1.5-2.4 3.7-3.6 6.7-3.6 2.3 0 4.3.9 5.9 2.8s2.4 4.3 2.4 7.3zm-4.5.2c0-1.9-.4-3.5-1.3-4.8-1-1.3-2.2-2-3.8-2-1.1 0-2.1.4-3 1.1s-1.5 1.7-1.7 2.8c-.1.5-.2 1-.2 1.3v3.3c0 1.4.4 2.7 1.3 3.7s2 1.5 3.5 1.5c1.7 0 3-.6 3.9-1.9.8-1.2 1.3-2.9 1.3-5zm27.4-.2c0 3.4-.9 6.1-2.7 8-1.6 1.7-3.7 2.6-6.1 2.6-2.6 0-4.5-.9-5.6-2.8h-.1v10.5h-4.5v-21.4c0-2.1-.1-4.3-.2-6.6h3.9l.2 3.2h.1c1.5-2.4 3.7-3.6 6.7-3.6 2.3 0 4.3.9 5.9 2.8s2.4 4.3 2.4 7.3zm-4.5.2c0-1.9-.4-3.5-1.3-4.8-1-1.3-2.2-2-3.8-2-1.1 0-2.1.4-3 1.1s-1.5 1.7-1.7 2.8c-.1.5-.2 1-.2 1.3v3.3c0 1.4.4 2.7 1.3 3.7s2 1.5 3.5 1.5c1.7 0 3-.6 3.9-1.9.8-1.2 1.3-2.9 1.3-5zm30.1 2.3c0 2.3-.8 4.3-2.5 5.7-1.8 1.6-4.3 2.4-7.5 2.4-3 0-5.4-.6-7.2-1.7l1-3.7c1.9 1.2 4.1 1.8 6.4 1.8 1.7 0 3-.4 3.9-1.1.9-.8 1.4-1.8 1.4-3 0-1.1-.4-2.1-1.1-2.8-.8-.8-2-1.5-3.8-2.1-4.8-1.8-7.2-4.4-7.2-7.9 0-2.3.8-4.1 2.5-5.6 1.7-1.4 3.9-2.2 6.8-2.2 2.5 0 4.6.4 6.3 1.3l-1.1 3.6c-1.6-.8-3.3-1.3-5.3-1.3-1.6 0-2.8.4-3.6 1.1-.7.7-1.1 1.5-1.1 2.5 0 1.1.4 2 1.3 2.7.7.7 2.1 1.4 4 2.1 2.4 1 4.1 2.1 5.2 3.4 1 1.3 1.6 2.9 1.6 4.8zm14.6-8.8h-4.9v9.7c0 2.5.9 3.7 2.6 3.7.8 0 1.4-.1 2-.2l.1 3.4c-.9.3-2 .5-3.4.5-1.7 0-3.1-.5-4.1-1.6s-1.5-2.9-1.5-5.4v-10h-2.9v-3.3h2.9v-3.6l4.3-1.3v5h4.9zm22 6.4c0 3.1-.9 5.6-2.6 7.5-1.8 2-4.3 3-7.3 3-2.9 0-5.2-1-7-2.9-1.7-1.9-2.6-4.4-2.6-7.3 0-3.1.9-5.6 2.7-7.6s4.2-2.9 7.2-2.9c2.9 0 5.3 1 7 2.9 1.8 1.9 2.6 4.4 2.6 7.3zm-4.6.2c0-1.8-.4-3.4-1.2-4.7-.9-1.6-2.3-2.4-4-2.4-1.8 0-3.1.8-4.1 2.4-.8 1.3-1.2 2.9-1.2 4.8 0 1.8.4 3.4 1.2 4.7 1 1.6 2.3 2.4 4 2.4s3-.8 4-2.4c.9-1.4 1.3-3 1.3-4.8zm19-6.1c-.4-.1-.9-.1-1.4-.1-1.6 0-2.8.6-3.6 1.8-.7 1-1.1 2.3-1.1 3.9v10.4h-4.4v-13.6c0-2.3-.1-4.4-.2-6.3h3.9l.2 3.8h.1c.5-1.3 1.2-2.4 2.2-3.2 1-.7 2-1.1 3.2-1.1.4 0 .8 0 1.1.1zm19.8 5.1c0 .8-.1 1.5-.2 2h-13.3c.1 2 .7 3.5 1.9 4.5 1.1.9 2.6 1.4 4.3 1.4 2 0 3.8-.3 5.4-.9l.7 3.1c-1.9.8-4.1 1.2-6.7 1.2-3.1 0-5.5-.9-7.3-2.7s-2.6-4.3-2.6-7.3.8-5.5 2.5-7.5c1.7-2.1 4-3.2 7-3.2 2.9 0 5 1.1 6.5 3.2 1.2 1.7 1.8 3.8 1.8 6.2zm-4.3-1.1c0-1.3-.3-2.4-.9-3.4-.8-1.2-1.9-1.8-3.5-1.8-1.4 0-2.6.6-3.5 1.8-.7 1-1.2 2.1-1.3 3.4zm-147.4-32.5c0 2.4-.7 4.3-2.2 5.5-1.4 1.1-3.3 1.7-5.8 1.7-1.2 0-2.3-.1-3.2-.2v-13.3c1.2-.2 2.4-.3 3.7-.3 2.4 0 4.2.5 5.4 1.5 1.5 1.2 2.1 2.9 2.1 5.1zm-2.3 0c0-1.6-.4-2.8-1.3-3.6-.8-.8-2.1-1.3-3.7-1.3-.7 0-1.3 0-1.8.1v10.1c.3 0 .8.1 1.5.1 1.7 0 2.9-.5 3.9-1.4s1.4-2.2 1.4-4zm14.5 2.1c0 1.5-.4 2.7-1.3 3.7s-2.1 1.5-3.6 1.5c-1.4 0-2.6-.5-3.4-1.4-.9-1-1.3-2.2-1.3-3.6 0-1.5.4-2.8 1.3-3.7s2.1-1.4 3.6-1.4c1.4 0 2.6.5 3.5 1.4.8.8 1.2 2 1.2 3.5zm-2.3.1c0-.9-.2-1.7-.6-2.3-.5-.8-1.1-1.2-1.9-1.2-.9 0-1.5.4-2 1.2-.4.6-.6 1.4-.6 2.4 0 .9.2 1.7.6 2.3.5.8 1.1 1.2 2 1.2.8 0 1.5-.4 1.9-1.2s.6-1.5.6-2.4zm18.6-4.9-3.1 9.8h-2l-1.3-4.2c-.3-1.1-.6-2.1-.8-3.2-.2 1.1-.5 2.1-.8 3.2l-1.3 4.2h-2l-2.9-9.8h2.2l1.1 4.6c.3 1.1.5 2.1.7 3.1.2-.8.4-1.9.8-3.1l1.4-4.7h1.8l1.3 4.6c.3 1.1.6 2.2.8 3.2h.1c.1-1 .4-2.1.7-3.2l1.2-4.6zm11.2 9.8h-2.2v-5.6c0-1.7-.7-2.6-2-2.6-.6 0-1.2.2-1.6.7s-.6 1-.6 1.7v5.8h-2v-7c0-.9 0-1.8-.1-2.8h1.9l.1 1.5h.1c.3-.5.6-.9 1.1-1.2.6-.4 1.2-.5 2-.5.9 0 1.7.3 2.3.9.8.7 1.1 1.8 1.1 3.2v5.9zm6 0h-2.2v-14.3h2.2zm12.8-5c0 1.5-.4 2.7-1.3 3.7s-2.1 1.5-3.6 1.5c-1.4 0-2.6-.5-3.4-1.4-.9-1-1.3-2.2-1.3-3.6 0-1.5.4-2.8 1.3-3.7.9-1 2.1-1.4 3.5-1.4s2.6.5 3.5 1.4c.9.8 1.3 2 1.3 3.5zm-2.2.1c0-.9-.2-1.7-.6-2.3-.5-.8-1.1-1.2-1.9-1.2-.9 0-1.5.4-2 1.2-.4.6-.6 1.4-.6 2.4 0 .9.2 1.7.6 2.3.5.8 1.1 1.2 2 1.2.8 0 1.5-.4 1.9-1.2s.6-1.5.6-2.4zm12.8 4.9h-2l-.2-1.1h-.1c-.7.9-1.6 1.3-2.9 1.3-.9 0-1.7-.3-2.2-.9-.5-.5-.8-1.2-.8-2 0-1.2.5-2.1 1.5-2.7s2.4-.9 4.2-.9v-.2c0-1.3-.7-1.9-2-1.9-1 0-1.8.2-2.5.7l-.4-1.4c.9-.6 2-.8 3.4-.8 2.6 0 3.8 1.3 3.8 4v3.6c0 .9.1 1.7.2 2.3zm-2.3-3.4v-1.5c-2.4 0-3.6.6-3.6 2 0 .5.1.9.4 1.1.3.3.6.4 1.1.4s.9-.2 1.3-.5.7-.7.8-1.2zm14.6 3.4h-1.9l-.1-1.6h-.1c-.6 1.2-1.7 1.8-3.1 1.8-1.2 0-2.2-.5-2.9-1.4-.8-.9-1.2-2.1-1.2-3.6 0-1.6.4-2.9 1.3-3.8.8-.9 1.8-1.4 3-1.4 1.3 0 2.2.4 2.8 1.3v-5.6h2.2v11.6c-.1 1 0 1.9 0 2.7zm-2.2-4.2v-1.6c0-.3 0-.5-.1-.7-.1-.5-.4-1-.8-1.3-.4-.4-.9-.5-1.5-.5-.8 0-1.4.3-1.9 1-.5.6-.7 1.5-.7 2.5s.2 1.8.7 2.4 1.1 1 1.9 1c.7 0 1.3-.3 1.7-.8.5-.7.7-1.3.7-2zm20.8-.8c0 1.5-.4 2.7-1.3 3.7s-2.1 1.5-3.6 1.5c-1.4 0-2.6-.5-3.4-1.4-.9-1-1.3-2.2-1.3-3.6 0-1.5.4-2.8 1.3-3.7.9-1 2.1-1.4 3.6-1.4 1.4 0 2.6.5 3.5 1.4.8.8 1.2 2 1.2 3.5zm-2.3.1c0-.9-.2-1.7-.6-2.3-.5-.8-1.1-1.2-2-1.2s-1.5.4-2 1.2c-.4.6-.6 1.4-.6 2.4 0 .9.2 1.7.6 2.3.5.8 1.1 1.2 2 1.2.8 0 1.5-.4 2-1.2.4-.8.6-1.5.6-2.4zm14 4.9h-2.2v-5.6c0-1.7-.7-2.6-2-2.6-.6 0-1.2.2-1.6.7s-.6 1-.6 1.7v5.8h-2.2v-7c0-.9 0-1.8-.1-2.8h1.9l.1 1.5h.1c.3-.5.6-.9 1.1-1.2.6-.4 1.2-.5 2-.5.9 0 1.7.3 2.3.9.8.7 1.1 1.8 1.1 3.2v5.9zm14.6-8.2h-2.4v4.7c0 1.2.4 1.8 1.3 1.8.4 0 .7 0 1-.1l.1 1.6c-.4.2-1 .2-1.7.2-.9 0-1.5-.3-2-.8s-.7-1.4-.7-2.6v-4.9h-1.4v-1.6h1.4v-1.8l2.1-.6v2.4h2.4zm11.5 8.2h-2.2v-5.6c0-1.8-.7-2.6-2-2.6-1 0-1.7.5-2.1 1.5-.1.2-.1.5-.1.8v5.9h-2.1v-14.3h2.2v5.9c.7-1.1 1.7-1.6 2.9-1.6.9 0 1.6.3 2.2.9.7.7 1.1 1.8 1.1 3.3.1-.1.1 5.8.1 5.8zm11.9-5.4c0 .4 0 .7-.1 1h-6.5c0 1 .3 1.7.9 2.2s1.3.7 2.1.7c1 0 1.8-.2 2.6-.5l.3 1.5c-.9.4-2 .6-3.3.6-1.5 0-2.7-.4-3.6-1.3s-1.3-2.1-1.3-3.6.4-2.7 1.2-3.7 2-1.6 3.4-1.6 2.5.5 3.2 1.6c.8.9 1.1 1.9 1.1 3.1zm-2.1-.6c0-.6-.1-1.2-.4-1.7-.4-.6-1-.9-1.7-.9s-1.3.3-1.7.9c-.4.5-.6 1-.6 1.7z"
              fill="#fff"></path>
    </g>
</svg>
