<svg width="375px" height="349px" viewBox="0 0 375 349" version="1.1" xmlns="http://www.w3.org/2000/svg" xmlns:xlink="http://www.w3.org/1999/xlink">
    <g id="Page-1" stroke="none" stroke-width="1" fill="none" fill-rule="evenodd" opacity="1">
        <g id="iPhone-XS" transform="translate(0.000000, -463.000000)" fill-rule="nonzero">
            <g id="herbal-spa-treatment-leaves" transform="translate(0.000000, 463.000000)">
                <path d="M22.5411065,83.0363237 C36.3466908,115.146329 59.6533092,146.906541 92.2670631,160.596174 C95.9899173,162.147363 100.216908,163.310755 104.560238,164.280248 C113.246898,151.327818 123.213289,140.818123 134.885988,132.209411 C144.92955,124.841262 155.439245,119.063082 166.258402,114.525465 C163.156024,112.3538 159.898914,110.376034 156.48591,108.592166 C142.913004,101.495476 128.215874,95.251939 113.905765,88.5430455 C127.362332,92.1883402 142.796665,93.5456308 155.671536,98.2379783 C163.69894,101.185626 171.105869,105.257497 178.008661,110.104964 C198.601086,103.085445 220.123837,99.7116081 241.60742,97.1525336 C224.195708,68.2228542 187.044338,44.9937952 159.045372,34.4844881 C129.805455,23.5094364 96.6875646,22.1521458 64.1513702,18.778697 C44.2185884,16.7229835 22.5407187,9.27766287 6.67980869,0.591003102 C3.07329369,-1.38676319 -0.76589969,1.90951396 0.475051706,5.90382627 C8.27016546,30.8388056 12.225698,59.0704498 22.5411065,83.0363237 Z" id="Path" fill="#1CD1C1"></path>
                <path d="M366.323811,79.23591 C329.637797,99.1686918 287.561789,101.611815 246.339323,106.342942 C226.21303,108.669726 206.27986,111.539038 187.316184,117.278826 C183.205533,118.51939 179.095269,119.915848 175.061789,121.467037 C163.078852,126.043046 151.522492,132.053904 140.625388,140.081308 C130.387539,147.604188 122.011117,156.523914 114.953206,166.335186 C103.707084,182.00181 95.8735781,200.034385 89.4361427,218.765383 C77.6858842,252.774819 72.2955016,288.917528 73.3425543,324.866727 C73.7691313,339.447906 74.0018097,354.610781 77.6083247,368.842942 C78.4226991,371.9841 79.1982937,375.978025 81.6414168,378.304809 C84.8213547,381.368407 90.5219752,378.227249 89.2422441,373.76758 C80.012668,342.317218 85.7520683,305.554421 98.5105998,275.500129 C113.169338,240.947001 141.478542,220.393744 176.070062,207.868278 C185.260858,204.533221 194.645941,201.624741 204.185367,198.871381 C204.379266,198.794209 204.573164,198.794209 204.767063,198.794209 C206.66727,198.794209 207.481644,201.585962 205.503878,202.478283 C194.257756,207.558428 183.089193,212.677353 172.463159,218.222854 C120.42076,245.368666 97.6958376,308.579628 117.202042,308.579628 C118.792399,308.579628 120.653438,308.153051 122.786324,307.261117 C152.879395,294.812823 188.634307,294.696872 221.713418,288.569674 C233.347337,286.436789 244.671019,283.528309 255.297053,279.10742 C297.4894,261.501422 327.660031,227.065021 345.614659,185.648268 C358.993666,154.740822 364.19015,118.249095 374.31166,86.13909 C375.630171,82.0284385 372.721691,78.4998707 369.153956,78.4998707 C368.262797,78.4603154 367.293304,78.6933816 366.323811,79.23591 Z" id="Path" fill="#0CC117"></path>
            </g>
        </g>
    </g>
</svg>
