
<svg xmlns="http://www.w3.org/2000/svg" width="264.526" height="162" viewBox="0 0 264.526 162" xmlns:xlink="http://www.w3.org/1999/xlink">
<defs>
    <style>.a{fill:#0cc117;}.b{isolation:isolate;}.c{fill:#fff;}</style>
</defs>
<g transform="translate(133.769)">
    <path class="a"
          d="M224.138,61.686c.779,17.145-6.012,33.176-11.689,49.318-2.783,7.9-5.344,15.809-6.68,23.824a43.791,43.791,0,0,0-.668,5.344,61,61,0,0,0,.668,16.143,47.315,47.315,0,0,0,5.121,14.25c3.785,7.014,9.018,13.137,14.807,18.926a121.267,121.267,0,0,0,36.516,25.049c5.455,2.449,11.133,5.121,17.144,6.346,1.336.223,2.895.668,4.23.223a1.939,1.939,0,0,0-.334-3.674c-13.359-2.227-25.939-11.021-34.846-21.152-10.131-11.689-12.691-25.828-11.021-40.857.445-4.008,1-8.016,1.781-12.023,0-.111,0-.111.111-.223a.775.775,0,0,1,1.447.445c-.111,5.121-.223,10.131-.111,15.029.668,24.158,20.039,43.975,23.6,36.738a6,6,0,0,0,.557-2.338c.779-13.359,7.236-26.607,11.021-39.967a61.914,61.914,0,0,0,2.561-14.139c1.113-18.814-6.234-36.182-18.369-50.32-9.018-10.576-21.709-19.037-31.728-28.611a2.345,2.345,0,0,0-3.785.557A1.662,1.662,0,0,0,224.138,61.686Z"
          transform="translate(-204.852 -59.298)"/>
</g>
<g class="b" transform="translate(0 51.025)">
    <path class="c"
          d="M91.319,165.137a16.323,16.323,0,0,1-4.13-6.391,36.522,36.522,0,0,1-1.87-8.337,66.649,66.649,0,0,1-.546-8.261q-.078-1.012-.078-3.507v-5.767q0-3.35.234-8.027a56.715,56.715,0,0,1,1.247-8.1,20.721,20.721,0,0,1,2.961-6.858,10.651,10.651,0,0,1,5.221-4.208,13.636,13.636,0,0,1,3.663-.546q3.273,0,3.273,2.182a1.711,1.711,0,0,1-.584,1.364,2.234,2.234,0,0,1-1.52.507,4.528,4.528,0,0,1-1.091-.234l-1.091-.156a4.245,4.245,0,0,0-2.65.9A6.693,6.693,0,0,0,92.41,112.3a27.7,27.7,0,0,0-2.416,8.183,70.926,70.926,0,0,0-.935,9.507q-.157,3.507-.156,7.4v2.1q-.078,1.092-.078,2.728a76.505,76.505,0,0,0,.39,7.793,23.93,23.93,0,0,0,1.714,7.793,8.616,8.616,0,0,0,4.052,5.143,6.355,6.355,0,0,0,3.273.779,6.906,6.906,0,0,0,5.767-3.273q-.078-2.727-.39-5.338a8.934,8.934,0,0,0-.935-3.546,3.425,3.425,0,0,0-.351.039l-.818.117-1.87.156q-2.65,0-2.65-2.26a1.535,1.535,0,0,1,.779-1.247,5.246,5.246,0,0,1,2.1-.779,16.3,16.3,0,0,1,3.9-.547,2.825,2.825,0,0,1,2.416,1.17,4.878,4.878,0,0,1,.857,2.961,43.05,43.05,0,0,0,.779,7.014,41.814,41.814,0,0,1,.779,6.936,2.18,2.18,0,0,1-.546,1.481,1.7,1.7,0,0,1-1.325.623,2.622,2.622,0,0,1-2.65-1.637v-.078l-1.714.857a8.474,8.474,0,0,1-3.974,1.325A10.09,10.09,0,0,1,91.319,165.137Z"
          transform="translate(-84.695 -105.131)"/>
    <path class="c"
          d="M122.39,162.394a42.529,42.529,0,0,1-2.416-8.338l-.546-2.65q-2.259-11.143-2.883-12.7h-.935q0,2.261-.078,4.13v4.286q0,10.444,1.481,16.287l-.856,2.1h-2.182l-1.014-1.169.078-5.221q0-7.014-.7-21.275-.625-15.2-.623-21.275,0-3.741,2.572-3.741a10.6,10.6,0,0,1,6.9,2.181,7.394,7.394,0,0,1,2.689,6.08v5.455a11.053,11.053,0,0,1-.389,2.689,12.718,12.718,0,0,1-.858,2.455l-1.481,2.8-1.247,2.339.391,1.87,1.09,5.532q1.09,6,2.105,9.741a38.161,38.161,0,0,0,2.493,6.781l.468.935a6.035,6.035,0,0,1,.779,2.494,2.118,2.118,0,0,1-.468,1.364,1.517,1.517,0,0,1-1.247.584Q123.794,166.135,122.39,162.394Zm-3.545-32.224a24.036,24.036,0,0,0,1.208-7.131,16.969,16.969,0,0,0-.625-4.676,3.423,3.423,0,0,0-3.506-2.572l-.157.39-.156.7.156,9.2q.155,4.053.157,8.806Q117.635,134.028,118.846,130.17Z"
          transform="translate(-81.634 -104.259)"/>
    <path class="c"
          d="M134.219,165.066a2.431,2.431,0,0,1-.9-1.714v-3.586a14.924,14.924,0,0,1-.077-1.635q0-1.636-.235-4.987l-.156-4.987q0-3.817.234-11.378.311-6.78.312-11.378,0-1.09-.234-3.273-.234-2.259-.234-3.274,0-5.531,3.273-5.532a21.215,21.215,0,0,1,5.962,1.013q3.392,1.014,3.39,2.416a2.011,2.011,0,0,1-.662,1.442,4.88,4.88,0,0,1-1.6,1.052,31.547,31.547,0,0,0-5.922-1.559q.075,1.169.077,3.351,0,3.118-.077,5.61-.235,3.742-.234,5.612l.234,1.247,1.246-.078a13.091,13.091,0,0,1,1.559-.078q3.741,0,3.741,2.182a1.808,1.808,0,0,1-.7,1.442,2.715,2.715,0,0,1-1.793.584,11.7,11.7,0,0,1-2.182-.156H137.3q.155,2.027.156,5.923t-.077,7.014q-.235,4.754-.234,7.092a23.049,23.049,0,0,0,.155,4.364l2.572-.079q1.324-.075,3.2-.077,2.961,0,2.961,1.87a1.849,1.849,0,0,1-.974,1.675,4.544,4.544,0,0,1-2.377.584h-6.624A2.738,2.738,0,0,1,134.219,165.066Z"
          transform="translate(-79.24 -104.203)"/>
    <path class="c"
          d="M154.1,165.066a2.432,2.432,0,0,1-.9-1.714v-3.586a14.87,14.87,0,0,1-.079-1.635q0-1.636-.233-4.987l-.156-4.987q0-3.817.234-11.378.309-6.78.311-11.378,0-1.09-.234-3.273-.232-2.259-.234-3.274,0-5.531,3.274-5.532a21.2,21.2,0,0,1,5.961,1.013q3.39,1.014,3.39,2.416a2.007,2.007,0,0,1-.662,1.442,4.874,4.874,0,0,1-1.6,1.052,31.543,31.543,0,0,0-5.924-1.559q.077,1.169.079,3.351,0,3.118-.079,5.61-.232,3.742-.234,5.612l.234,1.247,1.248-.078a13.064,13.064,0,0,1,1.559-.078q3.739,0,3.74,2.182a1.806,1.806,0,0,1-.7,1.442,2.71,2.71,0,0,1-1.792.584,11.7,11.7,0,0,1-2.182-.156h-1.948q.157,2.027.157,5.923t-.079,7.014q-.232,4.754-.234,7.092a22.969,22.969,0,0,0,.156,4.364l2.573-.079q1.324-.075,3.2-.077,2.959,0,2.961,1.87a1.849,1.849,0,0,1-.974,1.675,4.551,4.551,0,0,1-2.378.584h-6.623A2.748,2.748,0,0,1,154.1,165.066Z"
          transform="translate(-76.988 -104.203)"/>
    <path class="c"
          d="M192.057,164.521a3.584,3.584,0,0,1-.7-1.753l-.469-1.481v-.39q0-2.572-5.338-17.534t-8.376-22.132v39.2l.311.545c.052.1.157.286.312.546a1.5,1.5,0,0,1,.234.779,2.395,2.395,0,0,1-2.416,2.416q-2.495,0-2.494-4.754l-.077-13.326q-.079-6-.079-13.4,0-2.493.234-7.247.234-4.91.234-7.247a6.815,6.815,0,0,1,2.807-5.767v.468a2.556,2.556,0,0,1,.622-.156q1.794,0,4.52,6.234a106.486,106.486,0,0,1,3.935,10.52q1.755,5.534,4.637,15.742l.779,2.805q1.793,6.312,2.729,9.04,1.556-16.754,1.557-39.588v-1.013a6.131,6.131,0,0,1-.077-1.013q0-2.338,1.869-2.338a1.9,1.9,0,0,1,1.676.857,3.786,3.786,0,0,1,.586,2.182v5.845q-.157,12-.935,26.028t-1.871,15.82a15.8,15.8,0,0,1-2.8.623A1.815,1.815,0,0,1,192.057,164.521Z"
          transform="translate(-74.696 -104.243)"/>
</g>
<g class="b" transform="translate(211.222 59.675)">
    <path class="c"
          d="M274.425,162.386q0-1.87,2.416-1.87h.858l.778.078a.914.914,0,0,0,.857-.39,2.954,2.954,0,0,0,.234-1.4q0-1.324-.155-4.13-.235-1.87-.546-6.7-.7-11.923-.7-18,0-2.181.077-3.974l.078-3.974a32.6,32.6,0,0,0-.234-4.286,8.492,8.492,0,0,1-1.792.312,1.654,1.654,0,0,1-1.87-1.87,1.971,1.971,0,0,1,1.169-1.637,8.613,8.613,0,0,1,2.961-1.013,28.616,28.616,0,0,1,5.533-.623,2.183,2.183,0,0,1,1.6.662,2.1,2.1,0,0,1,.661,1.52,2.275,2.275,0,0,1-.507,1.481,1.585,1.585,0,0,1-1.286.623,3.246,3.246,0,0,1-.778-.078h-.624a1.549,1.549,0,0,0-1.13.351,1.819,1.819,0,0,0-.351,1.286q0,7.56.935,22.755.157,2.805.623,8.26a67.853,67.853,0,0,1,.39,7.325v2.961a10.855,10.855,0,0,1,1.559-.078q3.273,0,3.273,2.728v.468L286.5,164.49c-.052,0-.22.013-.505.039s-.819.039-1.6.039q-2.495.157-3.2.156Q274.427,164.724,274.425,162.386Z"
          transform="translate(-274.425 -112.901)"/>
    <path class="c"
          d="M291.786,164.335q.621-6.468,1.012-19.872.389-13.949.545-16.755v-1.87q.312-7.637.312-10.6a1.978,1.978,0,0,1,.9-1.714,3.528,3.528,0,0,1,2.065-.623,39.376,39.376,0,0,1,5.845.468,9.321,9.321,0,0,1,3.234,1.013A2.014,2.014,0,0,1,306.9,116.1q0,2.183-3.974,2.182a8.791,8.791,0,0,0-4.052-.779h-.935v.935q0,3.039-.311,7.715-.392,4.365-.391,7.871v2.1h1.4q3.817,0,3.819,2.026a1.959,1.959,0,0,1-.818,1.637,3.178,3.178,0,0,1-1.987.623,9.8,9.8,0,0,1-3.039-.39v22.054q0,3.43-2.026,3.429A5.14,5.14,0,0,1,291.786,164.335Z"
          transform="translate(-272.458 -112.901)"/>
    <path class="c"
          d="M311.839,165.066a2.429,2.429,0,0,1-.9-1.714v-3.586a14.9,14.9,0,0,1-.078-1.635q0-1.636-.234-4.987l-.156-4.987q0-3.817.234-11.378.311-6.78.311-11.378,0-1.09-.234-3.273-.232-2.259-.234-3.274,0-5.531,3.274-5.532a21.2,21.2,0,0,1,5.961,1.013q3.392,1.014,3.39,2.416a2.01,2.01,0,0,1-.661,1.442,4.88,4.88,0,0,1-1.6,1.052,31.534,31.534,0,0,0-5.923-1.559q.077,1.169.078,3.351,0,3.118-.078,5.61-.234,3.742-.234,5.612l.234,1.247,1.247-.078a13.078,13.078,0,0,1,1.559-.078q3.739,0,3.741,2.182a1.806,1.806,0,0,1-.7,1.442,2.713,2.713,0,0,1-1.793.584,11.7,11.7,0,0,1-2.182-.156h-1.948q.157,2.027.157,5.923t-.078,7.014q-.234,4.754-.234,7.092a23.178,23.178,0,0,0,.155,4.364l2.573-.079q1.324-.075,3.2-.077,2.959,0,2.961,1.87a1.849,1.849,0,0,1-.974,1.675,4.55,4.55,0,0,1-2.378.584H313.67A2.743,2.743,0,0,1,311.839,165.066Z"
          transform="translate(-270.341 -112.853)"/>
</g>
</svg>
