<svg width="240px" height="147px" viewBox="0 0 240 147" version="1.1" xmlns="http://www.w3.org/2000/svg"
     xmlns:xlink="http://www.w3.org/1999/xlink">
    <rect width="100%" height="100%" fill="#333333" />
    <g id="iPhone-XS-Copy" transform="translate(-62.000000, -291.000000)" fill-rule="nonzero">
        <g id="Group" transform="translate(62.000000, 291.000000)">
            <path d="M195.875,111 L199.783203,111 L199.783203,86.7871094 L195.875,86.7871094 L195.875,111 Z M197.829102,82.8789062 C199.199219,82.8789062 200.299805,81.7558594 200.299805,80.4082031 C200.299805,79.0380859 199.199219,77.9375 197.829102,77.9375 C196.481445,77.9375 195.358398,79.0380859 195.358398,80.4082031 C195.358398,81.7558594 196.481445,82.8789062 197.829102,82.8789062 Z M206.588867,111 L210.49707,111 L210.49707,90.0214844 L215.213867,90.0214844 L215.213867,86.7871094 L210.49707,86.7871094 L210.49707,84.5410156 C210.519531,82.2724609 211.373047,81.3291016 213.394531,81.3291016 C214.000977,81.3291016 214.697266,81.3964844 215.213867,81.5087891 L215.213867,78.2744141 C214.472656,78.1396484 213.798828,78.0722656 213.035156,78.0722656 C208.542969,78.0722656 206.588867,80.0712891 206.588867,84.5410156 L206.588867,86.7871094 L203.219727,86.7871094 L203.219727,90.0214844 L206.588867,90.0214844 L206.588867,111 Z M229.162109,86.5625 C235.630859,86.5625 239.673828,91.1220703 239.673828,98.4443359 L239.673828,99.9716797 L222.289062,99.9716797 L222.289062,100.196289 C222.289062,104.800781 225.119141,107.788086 229.431641,107.788086 C232.463867,107.788086 234.822266,106.350586 235.518555,104.082031 L239.381836,104.082031 C238.708008,108.237305 234.507812,111.224609 229.341797,111.224609 C222.536133,111.224609 218.246094,106.485352 218.246094,98.9833984 C218.246094,91.4814453 222.558594,86.5625 229.162109,86.5625 Z M229.094727,89.9990234 C225.298828,89.9990234 222.558594,92.7617188 222.289062,96.8496094 L222.289062,96.8496094 L235.608398,96.8496094 C235.518555,92.7392578 232.913086,89.9990234 229.094727,89.9990234 Z"
                  id="ife" fill="#fff"></path>
            <path d="M29.4794922,97.5908203 L29.4794922,94.5136719 L16.2949219,94.5136719 L16.2949219,98.0625 L25.4365234,98.0625 L25.4365234,98.6464844 C25.4365234,104.082031 21.4833984,107.810547 15.7333984,107.810547 C9.12988281,107.810547 5.04199219,102.756836 5.04199219,94.6035156 C5.04199219,86.5849609 9.0625,81.7783203 15.7333984,81.7783203 C20.2929688,81.7783203 23.6845703,84.2714844 25.0322266,88.6513672 L29.2773438,88.6513672 C28.0644531,82.2050781 22.7412109,78.0498047 15.7333984,78.0498047 C6.65917969,78.0498047 0.88671875,84.4960938 0.88671875,94.6259766 C0.88671875,104.935547 6.68164062,111.539062 15.7333984,111.539062 C24.3808594,111.539062 29.4794922,106.350586 29.4794922,97.5908203 Z M34.1513672,111 L38.0595703,111 L38.0595703,96.0185547 C38.0595703,92.6044922 40.1259766,90.3134766 43.2705078,90.3134766 C44.2363281,90.3134766 45.0898438,90.4257812 45.4042969,90.5380859 L45.4042969,86.6972656 C45.0673828,86.6298828 44.4833984,86.5625 43.7871094,86.5625 C40.9570312,86.5625 38.6435547,88.1796875 37.9248047,90.7177734 L37.8349609,90.7177734 L37.8349609,86.7871094 L34.1513672,86.7871094 L34.1513672,111 Z M58.3867188,89.9990234 C62.2050781,89.9990234 64.8105469,92.7392578 64.9003906,96.8496094 L51.5810547,96.8496094 C51.8505859,92.7617188 54.5908203,89.9990234 58.3867188,89.9990234 Z M64.8105469,104.082031 C64.1142578,106.350586 61.7558594,107.788086 58.7236328,107.788086 C54.4973828,107.788086 51.6948508,104.919079 51.58444,100.470607 L51.5810547,99.9716797 L68.9658203,99.9716797 L68.9658203,98.4443359 C68.9658203,91.1220703 64.9228516,86.5625 58.4541016,86.5625 C51.8505859,86.5625 47.5380859,91.4814453 47.5380859,98.9833984 C47.5380859,106.485352 51.828125,111.224609 58.6337891,111.224609 C63.7998047,111.224609 68,108.237305 68.6738281,104.082031 L64.8105469,104.082031 Z M82.734375,89.9990234 C86.5527344,89.9990234 89.1582031,92.7392578 89.2480469,96.8496094 L75.9287109,96.8496094 C76.1982422,92.7617188 78.9384766,89.9990234 82.734375,89.9990234 Z M89.1582031,104.082031 C88.4619141,106.350586 86.1035156,107.788086 83.0712891,107.788086 C78.7587891,107.788086 75.9287109,104.800781 75.9287109,100.196289 L75.9287109,99.9716797 L93.3134766,99.9716797 L93.3134766,98.4443359 C93.3134766,91.1220703 89.2705078,86.5625 82.8017578,86.5625 C76.1982422,86.5625 71.8857422,91.4814453 71.8857422,98.9833984 C71.8857422,106.485352 76.1757812,111.224609 82.9814453,111.224609 C88.1474609,111.224609 92.3476562,108.237305 93.0214844,104.082031 L89.1582031,104.082031 Z M97.4238281,111 L97.4238281,86.7871094 L101.107422,86.7871094 L101.107422,90.7177734 L101.197266,90.7177734 C102.724609,87.9775391 105.12793,86.5625 108.878906,86.5625 C114.202148,86.5625 117.279297,89.9765625 117.279297,95.4794922 L117.279297,111 L113.371094,111 L113.371094,96.1533203 C113.371094,92.2001953 111.529297,90.0439453 107.710938,90.0439453 C103.735352,90.0439453 101.332031,92.7841797 101.332031,96.9394531 L101.332031,111 L97.4238281,111 Z"
                  id="Green" fill="#fff"></path>
            <g id="herbal-spa-treatment-leaves" transform="translate(90.000000, 0.000000)" fill="#0CC117">
                <path d="M127.50334,19.0436082 C113.940782,26.4158675 98.3730315,27.2963719 83.1225204,29.0262215 C75.676682,29.8770576 68.3026378,30.9292836 61.2890966,33.0470156 C59.7688077,33.5047222 58.2487582,34.020264 56.7572159,34.5932562 C52.3260203,36.2835317 48.0535516,38.5063805 44.0262647,41.4777475 C40.2426099,44.2623477 37.1485917,47.5663042 34.5430059,51.2018234 C30.3912688,57.0070295 27.5037457,63.6920712 25.1332353,70.6370771 C20.8062292,83.2469244 18.8338591,96.6520983 19.243394,109.989439 C19.4102017,115.399134 19.5056193,121.024511 20.8488749,126.30668 C21.1521461,127.47251 21.4415919,128.954682 22.3470432,129.819391 C23.5255888,130.957902 25.6330406,129.796077 25.1567645,128.140809 C21.7222416,116.46745 23.8233764,102.832446 28.5259018,91.6905271 C33.9287894,78.8807648 44.3913211,71.2731678 57.1834131,66.6476416 C60.5822045,65.4160272 64.0531493,64.3427868 67.5813006,63.3271885 C67.6530008,63.298678 67.7247485,63.2987972 67.7964963,63.2989164 C68.4996238,63.3000844 68.8026802,64.3362899 68.0714021,64.6661142 C63.9131577,66.5438708 59.7836362,68.4360618 55.855127,70.486841 C36.6147281,80.5256038 28.2447513,103.962101 35.4625707,103.974091 C36.0510454,103.975069 36.7394177,103.817958 37.5280942,103.488373 C48.6556868,98.8887113 61.8858929,98.8676726 74.1222857,96.6148931 C78.4258371,95.8307708 82.6141155,94.7587221 86.543316,93.1251598 C102.144795,86.6194925 113.287571,73.8625692 119.905807,58.5085151 C124.837401,47.0504682 126.737809,33.515694 130.463302,21.6095105 C130.94866,20.0853213 129.870275,18.7744796 128.550117,18.7722866 C128.22034,18.7570643 127.861745,18.842933 127.50334,19.0436082 Z"
                      id="Path"
                      transform="translate(74.886178, 74.522483) rotate(-64.000000) translate(-74.886178, -74.522483) "></path>
            </g>
        </g>
    </g>
</svg>
