<svg width="37px" height="37px" viewBox="0 0 37 37" version="1.1" xmlns="http://www.w3.org/2000/svg" xmlns:xlink="http://www.w3.org/1999/xlink">
    <!-- Generator: Sketch 58 (84663) - https://sketch.com -->
    <title>share (3)</title>
    <desc>Created with Sketch.</desc>
    <g id="Page-1" stroke="none" stroke-width="1" fill="none" fill-rule="evenodd">
        <g id="iPhone-XS" transform="translate(-312.000000, -735.000000)" fill="#FFFFFF" fill-rule="nonzero">
            <g id="share-(3)" transform="translate(312.000000, 735.000000)">
                <path d="M29.852541,22.9489121 C27.7505447,22.9489121 25.896455,23.9418647 24.6851143,25.4624372 L13.4496461,19.7652655 C13.5967352,19.221314 13.7024556,18.659284 13.7024556,18.0677815 C13.7024556,17.4238663 13.5768935,16.8176274 13.4016889,16.22772 L24.5875911,10.5568305 C25.7922668,12.1462231 27.6943138,13.1850557 29.8541498,13.1850557 C33.5128399,13.1850557 36.4724734,10.2504828 36.4724734,6.62603876 C36.4724734,3.00486104 33.5128399,0.0686170213 29.8542264,0.0686170213 C26.2038101,0.0686170213 23.2408824,3.00486104 23.2408824,6.6259628 C23.2408824,7.21913651 23.3466794,7.78276167 23.4953774,8.32838425 L12.2615179,14.025556 C11.0485684,12.5033883 9.19110789,11.5071694 7.08581741,11.5071694 C3.43042148,11.5071694 0.472473404,14.4450086 0.472473404,18.0677815 C0.472473404,21.6905543 3.43049809,24.6267984 7.08581741,24.6267984 C9.24894765,24.6267984 11.1493858,23.5846995 12.3589645,21.9937118 L23.5398872,27.6646013 C23.3646825,28.2528375 23.2375116,28.8640138 23.2375116,29.5096001 C23.2375116,33.132373 26.2004393,36.068617 29.8508556,36.068617 C33.5095458,36.068617 36.4691792,33.132373 36.4691792,29.5096001 C36.4708646,25.8835609 33.5112311,22.9489121 29.852541,22.9489121 Z" id="Path"></path>
            </g>
        </g>
    </g>
</svg>