<svg height="83" viewBox="0 0 281 83" width="281" xmlns="http://www.w3.org/2000/svg" xmlns:xlink="http://www.w3.org/1999/xlink"><linearGradient id="a" x1="91.502%" x2="-37.896%" y1="4.942%" y2="72.009%"><stop offset="0" stop-color="#00a0ff"></stop><stop offset=".00657" stop-color="#00a1ff"></stop><stop offset=".2601" stop-color="#00beff"></stop><stop offset=".5122" stop-color="#00d2ff"></stop><stop offset=".7604" stop-color="#00dfff"></stop><stop offset="1" stop-color="#00e3ff"></stop></linearGradient><linearGradient id="b" x1="107.591%" x2="-130.54%" y1="49.914%" y2="49.914%"><stop offset="0" stop-color="#ffe000"></stop><stop offset=".4087" stop-color="#ffbd00"></stop><stop offset=".7754" stop-color="#ffa500"></stop><stop offset="1" stop-color="#ff9c00"></stop></linearGradient><linearGradient id="c" x1="86.146%" x2="-49.884%" y1="18.141%" y2="194.916%"><stop offset="0" stop-color="#ff3a44"></stop><stop offset="1" stop-color="#c31162"></stop></linearGradient><linearGradient id="d" x1="-18.974%" x2="41.945%" y1="-54.254%" y2="24.981%"><stop offset="0" stop-color="#32a071"></stop><stop offset=".0685" stop-color="#2da771"></stop><stop offset=".4762" stop-color="#15cf74"></stop><stop offset=".8009" stop-color="#06e775"></stop><stop offset="1" stop-color="#00f076"></stop></linearGradient><g fill="none"><path d="m269.6 83h-259.2c-5.7 0-10.4-4.7-10.4-10.4v-62.2c0-5.7 4.7-10.4 10.4-10.4h259.3c5.7 0 10.4 4.7 10.4 10.4v62.2c-.1 5.7-4.8 10.4-10.5 10.4z" fill="#000"></path><path d="m269.6 1.7c4.8 0 8.7 3.9 8.7 8.7v62.2c0 4.8-3.9 8.7-8.7 8.7h-259.2c-4.8 0-8.7-3.9-8.7-8.7v-62.2c0-4.8 3.9-8.7 8.7-8.7h259.2zm0-1.7h-259.2c-5.7 0-10.4 4.7-10.4 10.4v62.2c0 5.7 4.7 10.4 10.4 10.4h259.3c5.7 0 10.4-4.7 10.4-10.4v-62.2c-.1-5.7-4.8-10.4-10.5-10.4z" fill="#a6a6a6"></path><path d="m98.3 21.2c0 1.7-.5 3.1-1.5 4.2-1.2 1.2-2.7 1.8-4.6 1.8-1.8 0-3.3-.6-4.6-1.9-1.3-1.2-1.9-2.8-1.9-4.6s.6-3.4 1.9-4.6 2.8-1.9 4.6-1.9c.9 0 1.7.2 2.6.5.8.3 1.5.8 1.9 1.4l-1.1 1.1c-.8-1-2-1.5-3.4-1.5-1.3 0-2.4.5-3.4 1.4s-1.4 2.1-1.4 3.6.5 2.7 1.4 3.6c1 .9 2.1 1.4 3.4 1.4 1.4 0 2.5-.5 3.5-1.4.6-.6.9-1.4 1-2.5h-4.5v-1.5h6c.1.3.1.6.1.9zm9.6-5.2h-5.7v4h5.1v1.5h-5.1v3.9h5.7v1.6h-7.3v-12.5h7.3zm6.8 11h-1.6v-11h-3.5v-1.5h8.6v1.5h-3.5zm9.6 0v-12.5h1.6v12.5zm8.7 0h-1.6v-11h-3.5v-1.5h8.6v1.5h-3.5zm19.7-1.6c-1.2 1.3-2.7 1.9-4.6 1.9-1.8 0-3.3-.6-4.6-1.9-1.2-1.3-1.8-2.8-1.8-4.6s.6-3.4 1.8-4.6c1.2-1.3 2.7-1.9 4.6-1.9 1.8 0 3.3.6 4.6 1.9 1.2 1.3 1.8 2.8 1.8 4.6s-.6 3.3-1.8 4.6zm-8-1.1c.9.9 2 1.4 3.4 1.4 1.3 0 2.5-.5 3.4-1.4s1.4-2.1 1.4-3.6c0-1.4-.5-2.6-1.4-3.6-.9-.9-2-1.4-3.4-1.4-1.3 0-2.5.5-3.4 1.4s-1.4 2.1-1.4 3.6.5 2.7 1.4 3.6zm12 2.7v-12.5h1.9l6 9.7h.1l-.1-2.4v-7.3h1.6v12.5h-1.7l-6.3-10.1h-.1l.1 2.4v7.7z" fill="#fff" stroke="#fff" stroke-width=".2"></path><path d="m141.3 45.1c-4.9 0-8.9 3.7-8.9 8.8s4 8.8 8.9 8.8 8.9-3.7 8.9-8.8-4-8.8-8.9-8.8zm0 14.2c-2.7 0-5-2.2-5-5.3 0-3.2 2.3-5.3 5-5.3s5 2.2 5 5.3-2.3 5.3-5 5.3zm-19.3-14.2c-4.9 0-8.9 3.7-8.9 8.8s4 8.8 8.9 8.8 8.9-3.7 8.9-8.8-4-8.8-8.9-8.8zm0 14.2c-2.7 0-5-2.2-5-5.3 0-3.2 2.3-5.3 5-5.3s5 2.2 5 5.3-2.3 5.3-5 5.3zm-23-11.5v3.7h9c-.3 2.1-1 3.6-2 4.7-1.3 1.3-3.3 2.7-6.9 2.7-5.5 0-9.8-4.4-9.8-10s4.3-10 9.8-10c3 0 5.1 1.2 6.7 2.7l2.6-2.6c-2.2-2.1-5.2-3.8-9.4-3.8-7.6 0-13.9 6.1-13.9 13.7s6.3 13.7 13.9 13.7c4.1 0 7.2-1.3 9.6-3.8 2.5-2.5 3.2-5.9 3.2-8.8 0-.9-.1-1.7-.2-2.3h-12.6zm94 2.9c-.7-2-3-5.6-7.6-5.6-4.5 0-8.3 3.6-8.3 8.8 0 4.9 3.7 8.8 8.8 8.8 4 0 6.4-2.5 7.4-3.9l-3-2c-1 1.5-2.4 2.4-4.3 2.4-2 0-3.4-.9-4.3-2.7l11.8-4.9zm-12 3c-.1-3.4 2.6-5.1 4.6-5.1 1.5 0 2.8.8 3.3 1.9zm-9.6 8.5h3.9v-25.9h-3.9zm-6.4-15.1h-.1c-.9-1-2.5-2-4.6-2-4.4 0-8.5 3.9-8.5 8.9 0 4.9 4 8.8 8.5 8.8 2.1 0 3.8-.9 4.6-2h.1v1.2c0 3.4-1.8 5.2-4.7 5.2-2.4 0-3.8-1.7-4.4-3.1l-3.4 1.4c1 2.3 3.5 5.2 7.8 5.2 4.5 0 8.4-2.7 8.4-9.2v-15.9h-3.7zm-4.4 12.2c-2.7 0-4.9-2.2-4.9-5.3s2.2-5.4 4.9-5.4c2.6 0 4.7 2.3 4.7 5.4 0 3-2.1 5.3-4.7 5.3zm50.6-23h-9.3v25.9h3.9v-9.8h5.4c4.3 0 8.5-3.1 8.5-8.1s-4.3-8-8.5-8zm.1 12.5h-5.5v-8.9h5.5c2.9 0 4.5 2.4 4.5 4.4 0 2.1-1.7 4.5-4.5 4.5zm23.9-3.7c-2.8 0-5.7 1.2-6.9 4l3.4 1.4c.7-1.4 2.1-1.9 3.5-1.9 2 0 4 1.2 4.1 3.3v.3c-.7-.4-2.2-1-4-1-3.7 0-7.5 2-7.5 5.8 0 3.5 3 5.7 6.4 5.7 2.6 0 4-1.2 4.9-2.5h.1v2h3.7v-9.9c.1-4.7-3.3-7.2-7.7-7.2zm-.5 14.2c-1.3 0-3-.6-3-2.2 0-2 2.2-2.8 4.1-2.8 1.7 0 2.5.4 3.5.9-.3 2.4-2.4 4.1-4.6 4.1zm22-13.7-4.4 11.2h-.1l-4.6-11.2h-4.2l6.9 15.7-3.9 8.7h4l10.6-24.4zm-34.9 16.6h3.9v-25.9h-3.9z" fill="#fff"></path><path d="m1.6 1.6c-.6.6-1 1.6-1 2.9v45.9c0 1.3.4 2.3 1 2.9l.2.1 25.7-25.7v-.6l-25.7-25.6z" fill="url(#a)" transform="translate(20 14)"></path><path d="m36.1 36.4-8.6-8.6v-.6l8.6-8.6.2.1 10.1 5.8c2.9 1.6 2.9 4.3 0 6l-10.1 5.8z" fill="url(#b)" transform="translate(20 14)"></path><path d="m36.3 36.2-8.8-8.8-25.9 25.9c1 1 2.5 1.1 4.3.1z" fill="url(#c)" transform="translate(20 14)"></path><path d="m36.3 18.7-30.3-17.2c-1.8-1-3.4-.9-4.3.1l25.8 25.8z" fill="url(#d)" transform="translate(20 14)"></path><g fill="#000"><path d="m56.1 50.1-30.1 17.1c-1.7 1-3.2.9-4.2 0l-.2.2.2.1c1 .9 2.5.9 4.2 0l30.3-17.2z" opacity=".2"></path><path d="m21.6 67c-.6-.6-1-1.6-1-2.9v.3c0 1.3.4 2.3 1 2.9l.2-.2z" opacity=".12"></path></g><path d="m66.4 44.2-10.3 5.9.2.2 10.1-5.8c1.4-.8 2.2-1.9 2.2-3-.1 1-.9 1.9-2.2 2.7z" fill="#000" opacity=".12"></path><path d="m26 15.8 40.4 23c1.3.7 2.1 1.7 2.2 2.7 0-1.1-.7-2.2-2.2-3l-40.4-23c-2.9-1.6-5.3-.3-5.3 3v.3c0-3.3 2.4-4.6 5.3-3z" fill="#fff" opacity=".25"></path></g></svg>
